HIERARCHY
ROOT Hips
{
  OFFSET -139.75 36.7822 -148.096
  CHANNELS 6 Xposition Yposition Zposition Zrotation Xrotation Yrotation
  JOINT LeftHip
  {
    OFFSET 3.43 0 0
    CHANNELS 6 Xposition Yposition Zposition Zrotation Xrotation Yrotation
    JOINT LeftKnee
    {
      OFFSET 0 -18.47 0
      CHANNELS 6 Xposition Yposition Zposition Zrotation Xrotation Yrotation
      JOINT LeftAnkle
      {
        OFFSET 0 -17.95 0
        CHANNELS 6 Xposition Yposition Zposition Zrotation Xrotation Yrotation
        End Site
        {
          OFFSET 0 -3.12 0
        }
      }
    }
  }
  JOINT RightHip
  {
    OFFSET -3.43 0 0
    CHANNELS 6 Xposition Yposition Zposition Zrotation Xrotation Yrotation
    JOINT RightKnee
    {
      OFFSET 0 -18.47 0
      CHANNELS 6 Xposition Yposition Zposition Zrotation Xrotation Yrotation
      JOINT RightAnkle
      {
        OFFSET 0 -17.95 0
        CHANNELS 6 Xposition Yposition Zposition Zrotation Xrotation Yrotation
        End Site
        {
          OFFSET 0 -3.12 0
        }
      }
    }
  }
  JOINT Chest
  {
    OFFSET 0 4.57 0
    CHANNELS 6 Xposition Yposition Zposition Zrotation Xrotation Yrotation
    JOINT CS_BVH
    {
      OFFSET 0 6.57 0
      CHANNELS 6 Xposition Yposition Zposition Zrotation Xrotation Yrotation
      JOINT LeftCollar
      {
        OFFSET 1.06 4.19 1.76
        CHANNELS 6 Xposition Yposition Zposition Zrotation Xrotation Yrotation
        JOINT LeftShoulder
        {
          OFFSET 5.81 0 0
          CHANNELS 6 Xposition Yposition Zposition Zrotation Xrotation Yrotation
          JOINT LeftElbow
          {
            OFFSET 0 -12.08 0
            CHANNELS 6 Xposition Yposition Zposition Zrotation Xrotation Yrotation
            JOINT LeftWrist
            {
              OFFSET 0 -9.82 0
              CHANNELS 6 Xposition Yposition Zposition Zrotation Xrotation Yrotation
              End Site
              {
                OFFSET 0 -7.37 0
              }
            }
          }
        }
      }
      JOINT RightCollar
      {
        OFFSET -1.06 4.19 1.76
        CHANNELS 6 Xposition Yposition Zposition Zrotation Xrotation Yrotation
        JOINT RightShoulder
        {
          OFFSET -6.06 0 0
          CHANNELS 6 Xposition Yposition Zposition Zrotation Xrotation Yrotation
          JOINT RightElbow
          {
            OFFSET 0 -11.08 0
            CHANNELS 6 Xposition Yposition Zposition Zrotation Xrotation Yrotation
            JOINT RightWrist
            {
              OFFSET 0 -9.82 0
              CHANNELS 6 Xposition Yposition Zposition Zrotation Xrotation Yrotation
              End Site
              {
                OFFSET 0 -7.14001 0
              }
            }
          }
        }
      }
      JOINT Neck
      {
        OFFSET 0 4.05 0
        CHANNELS 6 Xposition Yposition Zposition Zrotation Xrotation Yrotation
        JOINT Head
        {
          OFFSET 0 5.19 0
          CHANNELS 6 Xposition Yposition Zposition Zrotation Xrotation Yrotation
          End Site
          {
            OFFSET 0 4.14001 0
          }
        }
      }
    }
  }
}
MOTION
Frames:	7
Frame Time:	0.0333333
129.911 31.3249 89.0958 -16.1619 -9.8425 47.6307 3.43 -7.10543e-015 -2.13163e-014 18.9184 -17.7658 2.74094 6.12843e-014 -18.47 7.10543e-014 -164.885 69.3634 150.182 1.63425e-013 -17.95 4.61853e-013 8.9357 -25.3216 0.57715 -3.43 -5.68434e-014 7.10543e-015 30.6241 -48.0243 17.0609 5.32907e-014 -18.47 -1.06581e-014 -166.15 81.5999 160.322 3.12639e-013 -17.95 0 6.91777 -9.0908 -0.0424785 0 4.57 -4.26326e-014 30.6155 16.1162 -13.451 -3.10862e-015 6.57 -3.55271e-015 0.0381302 7.42394 0.3187 1.06 4.19 1.76 -32.8703 1.37768 -4.10631 5.81 1.42109e-014 -1.42109e-014 13.3565 38.8507 -29.6355 1.43174e-012 -12.08 -1.53477e-012 49.9256 -14.3547 20.7939 2.73772e-011 -9.82 -4.78302e-011 1.13733e-009 2.19862e-010 2.12218e-009 -1.06 4.19 1.76 15.0034 0.0665137 -1.61905 -6.06 7.10543e-014 2.84217e-014 -13.7468 18.637 60.6285 1.53833e-012 -11.08 3.13705e-012 -46.3237 -19.5803 -9.61121 3.7133e-011 -9.82 6.74127e-011 -7.35579e-010 2.89368e-008 -7.70461e-010 -1.08802e-014 4.05 0 -6.34734 -2.85883 -0.429583 -3.90799e-014 5.19 -1.42109e-014 0.663338 -13.2223 -2.33471 
129.267 31.6954 88.7054 -12.2737 -6.14303 44.8597 3.43 -7.10543e-015 -2.13163e-014 13.3408 -21.5487 4.5053 6.12843e-014 -18.47 7.10543e-014 -165.972 68.119 152.049 1.63425e-013 -17.95 4.61853e-013 6.47759 -23.2339 0.171412 -3.43 -5.68434e-014 7.10543e-015 25.0569 -47.0148 17.0351 5.32907e-014 -18.47 -1.06581e-014 -178.242 85.4883 175.154 3.12639e-013 -17.95 0 4.95999 -9.37438 0.0683605 0 4.57 -4.26326e-014 24.1633 17.1863 -10.0406 -3.10862e-015 6.57 -3.55271e-015 -0.00207042 3.87302 -0.264835 1.06 4.19 1.76 -34.7188 1.33071 -3.71245 5.81 1.42109e-014 -1.42109e-014 20.2263 33.2531 -32.9775 1.43174e-012 -12.08 -1.53477e-012 49.7863 -14.3433 20.723 2.73772e-011 -9.82 -4.78302e-011 1.13733e-009 2.19862e-010 2.12218e-009 -1.06 4.19 1.76 15.6675 0.0434416 -1.77987 -6.06 7.10543e-014 2.84217e-014 -11.7372 15.7561 54.9758 1.53833e-012 -11.08 3.13705e-012 -31.6283 -14.5773 -4.94094 3.7133e-011 -9.82 6.74127e-011 -7.35579e-010 2.89368e-008 -7.70461e-010 -1.08802e-014 4.05 0 -5.43199 -2.39783 0.00353931 -3.90799e-014 5.19 -1.42109e-014 -0.519439 -14.0768 -1.55391 
129.114 32.4023 88.6561 -8.12397 -0.908801 41.6442 3.43 -7.10543e-015 -2.13163e-014 7.53647 -26.9745 6.81517 6.12843e-014 -18.47 7.10543e-014 -165.067 68.3536 151.445 1.63425e-013 -17.95 4.61853e-013 3.57928 -19.2126 -0.200862 -3.43 -5.68434e-014 7.10543e-015 20.0602 -45.1939 22.2693 5.32907e-014 -18.47 -1.06581e-014 115.985 88.9928 -116.002 3.12639e-013 -17.95 0 3.58384 -9.09123 0.123557 0 4.57 -4.26326e-014 15.4003 15.3623 -5.68986 -3.10862e-015 6.57 -3.55271e-015 0.760849 1.87323 -1.02407 1.06 4.19 1.76 -38.2178 1.25972 -3.12065 5.81 1.42109e-014 -1.42109e-014 27.7306 26.113 -36.5821 1.43174e-012 -12.08 -1.53477e-012 49.9318 -14.3552 20.7971 2.73772e-011 -9.82 -4.78302e-011 1.13733e-009 2.19862e-010 2.12218e-009 -1.06 4.19 1.76 15.2412 0.0994012 -1.35102 -6.06 7.10543e-014 2.84217e-014 -11.8251 7.14441 50.2714 1.53833e-012 -11.08 3.13705e-012 -6.35909 -3.18891 -0.34406 3.7133e-011 -9.82 6.74127e-011 -7.35579e-010 2.89368e-008 -7.70461e-010 -1.08802e-014 4.05 0 -5.56638 -3.83173 0.730361 -3.90799e-014 5.19 -1.42109e-014 -1.63407 -14.4996 -0.684206 
128.516 33.949 88.27 -2.1112 3.40044 39.2409 3.43 -7.10543e-015 -2.13163e-014 3.86567 -29.3898 10.2526 6.12843e-014 -18.47 7.10543e-014 -159.476 72.0245 145.407 1.63425e-013 -17.95 4.61853e-013 0.558825 -12.123 -0.318317 -3.43 -5.68434e-014 7.10543e-015 11.8195 -42.2671 23.3171 5.32907e-014 -18.47 -1.06581e-014 19.1648 83.6796 -16.3888 3.12639e-013 -17.95 0 2.20014 -7.93931 0.165552 0 4.57 -4.26326e-014 6.03413 14.1217 -2.96 -3.10862e-015 6.57 -3.55271e-015 -0.571241 1.44694 -1.52917 1.06 4.19 1.76 -37.717 1.57249 -4.06713 5.81 1.42109e-014 -1.42109e-014 32.2118 20.3241 -40.8931 1.43174e-012 -12.08 -1.53477e-012 49.7754 -14.3424 20.7175 2.73772e-011 -9.82 -4.78302e-011 1.13733e-009 2.19862e-010 2.12218e-009 -1.06 4.19 1.76 16.7656 -0.00594676 -2.09653 -6.06 7.10543e-014 2.84217e-014 -11.3993 7.08402 45.8085 1.53833e-012 -11.08 3.13705e-012 -0.000360844 -5.33806e-007 -0.000159799 3.7133e-011 -9.82 6.74127e-011 -7.35579e-010 2.89368e-008 -7.70461e-010 -1.08802e-014 4.05 0 -4.10811 -5.73271 1.36106 -3.90799e-014 5.19 -1.42109e-014 -1.41968 -13.6788 0.409305 
127.016 35.4496 87.2921 4.02608 7.64844 37.6127 3.43 -7.10543e-015 -2.13163e-014 0.875673 -27.9062 14.4998 6.12843e-014 -18.47 7.10543e-014 -149.69 76.7595 135.053 1.63425e-013 -17.95 4.61853e-013 1.07594 -11.5516 -0.305632 -3.43 -5.68434e-014 7.10543e-015 4.55345 -42.2005 24.0482 5.32907e-014 -18.47 -1.06581e-014 12.3227 77.7694 -8.23353 3.12639e-013 -17.95 0 1.40625 -5.41199 0.171542 0 4.57 -4.26326e-014 -4.47102 12.6797 -1.78335 -3.10862e-015 6.57 -3.55271e-015 -1.38823 0.14727 -2.24204 1.06 4.19 1.76 -36.8267 1.592 -4.23751 5.81 1.42109e-014 -1.42109e-014 34.6439 15.9788 -44.9251 1.43174e-012 -12.08 -1.53477e-012 50.9746 -14.4345 21.3212 2.73772e-011 -9.82 -4.78302e-011 1.13733e-009 2.19862e-010 2.12218e-009 -1.06 4.19 1.76 16.7948 0.0626727 -1.60304 -6.06 7.10543e-014 2.84217e-014 -9.2784 11.1472 40.7436 1.53833e-012 -11.08 3.13705e-012 -0.00186594 -2.76043e-006 -0.000826323 3.7133e-011 -9.82 6.74127e-011 -7.35579e-010 2.89368e-008 -7.70461e-010 -1.08802e-014 4.05 0 -2.7496 -4.33384 2.44058 -3.90799e-014 5.19 -1.42109e-014 -2.69909 -15.178 1.88523 
125.352 36.0654 86.0543 5.94585 9.32014 36.4527 3.43 -7.10543e-015 -2.13163e-014 -2.46837 -20.9083 14.2326 6.12843e-014 -18.47 7.10543e-014 -125.656 81.3079 111.049 1.63425e-013 -17.95 4.61853e-013 2.48257 -13.9262 -0.295495 -3.43 -5.68434e-014 7.10543e-015 3.12181 -44.6101 24.549 5.32907e-014 -18.47 -1.06581e-014 8.52079 74.3795 -4.62924 3.12639e-013 -17.95 0 0.994479 -4.90155 0.194468 0 4.57 -4.26326e-014 -8.78898 10.9333 -2.16871 -3.10862e-015 6.57 -3.55271e-015 -1.55673 -0.136555 -2.79328 1.06 4.19 1.76 -35.5115 1.45099 -3.98531 5.81 1.42109e-014 -1.42109e-014 36.4899 12.5141 -50.0572 1.43174e-012 -12.08 -1.53477e-012 58.3754 -14.7307 25.0173 2.73772e-011 -9.82 -4.78302e-011 1.13733e-009 2.19862e-010 2.12218e-009 -1.06 4.19 1.76 17.5678 -0.00950459 -2.07889 -6.06 7.10543e-014 2.84217e-014 -8.42001 12.1671 39.5879 1.53833e-012 -11.08 3.13705e-012 -0.00289625 -4.2844e-006 -0.00128259 3.7133e-011 -9.82 6.74127e-011 -7.35579e-010 2.89368e-008 -7.70461e-010 -1.08802e-014 4.05 0 -0.507886 -5.11867 3.527 -3.90799e-014 5.19 -1.42109e-014 -4.01066 -14.9156 3.70109 
123.07 36.2083 84.1601 0.844853 6.9316 38.4429 3.43 -7.10543e-015 -2.13163e-014 0.252644 -18.7176 9.87925 6.12843e-014 -18.47 7.10543e-014 -85.8509 82.7859 73.1077 1.63425e-013 -17.95 4.61853e-013 1.42106 -12.7885 -0.315632 -3.43 -5.68434e-014 7.10543e-015 8.90469 -48.2272 24.4412 5.32907e-014 -18.47 -1.06581e-014 6.14279 69.6646 -3.44559 3.12639e-013 -17.95 0 1.73078 -5.96858 0.151452 0 4.57 -4.26326e-014 -3.7221 11.5623 -3.64438 -3.10862e-015 6.57 -3.55271e-015 0.670009 1.81417 -3.78178 1.06 4.19 1.76 -35.3167 1.55621 -4.33391 5.81 1.42109e-014 -1.42109e-014 38.266 10.6095 -55.1332 1.43174e-012 -12.08 -1.53477e-012 68.9286 -14.3518 30.2875 2.73772e-011 -9.82 -4.78302e-011 1.13733e-009 2.19862e-010 2.12218e-009 -1.06 4.19 1.76 17.6414 0.0335645 -1.78223 -6.06 7.10543e-014 2.84217e-014 -7.40697 12.9619 39.5389 1.53833e-012 -11.08 3.13705e-012 -0.00162854 -2.40885e-006 -0.000721193 3.7133e-011 -9.82 6.74127e-011 -7.35579e-010 2.89368e-008 -7.70461e-010 -1.08802e-014 4.05 0 -0.532773 -3.52057 4.19458 -3.90799e-014 5.19 -1.42109e-014 -3.93384 -17.3816 4.26561 
